/* XPM */
static char *fix-fonts[] = {
/* columns rows colors chars-per-pixel */
"32 32 108 2",
"   c #000000",
".  c #0C0603",
"X  c #0B0806",
"o  c #0C0C0C",
"O  c #150C0C",
"+  c #1C0000",
"@  c #131313",
"#  c #1B1616",
"$  c #1B1B1B",
"%  c #220D0D",
"&  c #2B0303",
"*  c #201F1F",
"=  c #350808",
"-  c #3B0000",
";  c #232323",
":  c #2C2323",
">  c #2B2B2B",
",  c #382C2C",
"<  c #323232",
"1  c #3B3B3B",
"2  c #4D0000",
"3  c #491010",
"4  c #4E1B1B",
"5  c #570D0D",
"6  c #5B0C0C",
"7  c #571717",
"8  c #412828",
"9  c #5D2E2E",
"0  c #650B0B",
"q  c #6A0606",
"w  c #690A0A",
"e  c #621F1F",
"r  c #691313",
"t  c #681919",
"y  c #7A0201",
"u  c #731010",
"i  c #7F1111",
"p  c #791818",
"a  c #662121",
"s  c #613131",
"d  c #752C2C",
"f  c #782727",
"g  c #7C2A2A",
"h  c #434343",
"j  c #4B4B4B",
"k  c #524949",
"l  c #535353",
"z  c #5A5A5A",
"x  c #6A5454",
"c  c #714848",
"v  c #656565",
"b  c #6A6969",
"n  c #7E6262",
"m  c #757575",
"M  c #7A7A7A",
"N  c #8B0D0D",
"B  c #900000",
"V  c #9F0D0D",
"C  c #892B2B",
"Z  c #833333",
"A  c #813F3F",
"S  c #A60000",
"D  c #A00808",
"F  c #AA0A0A",
"G  c #B40000",
"H  c #BB0000",
"J  c #894141",
"K  c #805E5E",
"L  c #915C5C",
"P  c #806969",
"I  c #877272",
"U  c #807F7F",
"Y  c #8D7272",
"T  c #966767",
"R  c #B65E5E",
"E  c #A06C6C",
"W  c #B87171",
"Q  c #BB7C7C",
"!  c #CA0000",
"~  c #D10000",
"^  c #DF0000",
"/  c #E60000",
"(  c #C27B7B",
")  c #838383",
"_  c #8C8C8C",
"`  c #929292",
"'  c #9F9090",
"]  c gray61",
"[  c #A48080",
"{  c #AB8787",
"}  c #BE8585",
"|  c #A4A4A4",
" . c #ABABAB",
".. c #B8A1A1",
"X. c #B6B6B6",
"o. c #BBBBBB",
"O. c #C18C8C",
"+. c #C39393",
"@. c #C59B9B",
"#. c #C3ABAB",
"$. c #C3C3C3",
"%. c #CBCBCB",
"&. c #D3D3D3",
"*. c #DCDCDC",
"=. c #E3E3E3",
"-. c #EAEAEA",
";. c gray100",
":. c None",
/* pixels */
":.:.:.:.:.:.> 1 h j j j j l j j l j j j j h :.:.:.:.:.:.:.:.:.:.",
":.:.:.; h h j j h j l z z z z z z z z z j h < :.:.:.:.:.:.:.:.:.",
":.:.> h j M X.$.%.&.&.&.&.&.$.o.X.X.X.X.X.z <   :.:.:.:.:.:.:.:.",
":.  1 z $.%.%.%.%.&.&.&.&.$.X.X.X.X.X.X.X.z >   :.:.:.:.:.:.:.:.",
":.< h X.%.%.%.%.%.&.%.&.$.X.X.X.X.X.X.o.X.v >   :.:.:.:.:.:.:.:.",
"  < ` %.%.%.%.&.%.%.%.$.X.X.X.X.X.X.X.o.$.v >   :.:.:.:.:.:.:.:.",
"; 1  .%.%.%.%.%.%.%.$.o.X.X.X.X.X.o.%.&.&.b >   :.:.:.:.:.:.:.:.",
"> 1 X.$.$.%.$.%.$. .| | | | | | |  . . . .j ;   :.:.:.:.:.:.:.:.",
"> h o.$.$.$.$.X.z < > < < < < > > > > > > ; @   :.:.:.:.:.:.:.:.",
"; h o.$.o.$.$. .j 1 1 1 h 8 1 1 > $ @ @ @ o   :.:.:.:.:.:.:.:.:.",
"$ h X.$.$.$.$.o.) z z z l l l l l j j h $             :.:.:.:.:.",
"$ 1 X.X.o.o.o.X.X.X.X.X.R W ( O.} O.+.@.@.+.O.} Q ( g   :.:.:.:.",
"@ < ] X.X.X.X.X.X.X.X.X.C #.T Z g g [ ..J f g J { E 2   :.:.:.:.",
"  ; z X.X.X.X.X.X.X.o.X.g L 3 b M s n ' 4 < $ + t T 2   :.:.:.:.",
"  @ < ` X.o.o.o.$.o.$.X.C r ] X.X.c c n 7 v > o - e -           ",
":.  $ 1 ) o.$.$.$.$.$.o.N 9 o.$.o.j b m M ) _ _ ` ` _ _ ) M b ; ",
":.:.  $ > j b _ ] ] ] ] b U ] X.$.# h $ % o   > 1 o   . o > >   ",
":.:.:.  @ $ $ ; ; ; > > > ; > l X.# ; d u ] > ; 1 o         >   ",
":.> < < > > $ # @ @ @ o @ @ * h  .# = B q X.< * > @         o   ",
"< h j j j l j l l l l l l l l b $.O q S 0 o.< $ ; o   :.:.      ",
"> z o.$.$.$.$.%.%.%.%.%.%.%.%.%.%.P D H w o.> @ $ @   :.:.      ",
"> M %.%.&.&.*.*.*.*.*.*.*.*.*.*.&.Y F ! 0 X.> $ $ o   :.:.:.    ",
"> M &.&.&.*.*.*.=.=.=.=.=.*.*.*.*.Y F / 6 ` $     .   :.:.:.:.:.",
"> m &.*.*.*.=.=.=.=.-.=.-.=.=.=.*.Y F / 6 k @ o       :.:.:.:.:.",
"> m &.*.*.*.=.-.-.-.-.-.-.-.=.=.*.x V ! 5 ; o o X o   :.:.:.:.:.",
"; z %.%.&.*.*.*.=.=.-.=.=.=.*.*.%.8 F G w O   o o o   :.:.:.:.:.",
"* ; 1 h h h h h h h j h j h j , % a i y p & : @ @ o   :.:.:.:.:.",
"  $ $ $ $ $ $ $ $ $ $ $ $ $ $ . o . . . . X . $ ; @   :.:.:.:.:.",
":.    :.:.:.:.:.:.:.:.:.:.:.:.                > < $     :.:.:.:.",
":.:.:.:.:.:.:.:.:.:.:.:.:.:.:.:.:.:.:.:.    o < h <       :.:.:.",
":.:.:.:.:.:.:.:.:.:.:.:.:.:.:.:.:.:.:.    @ 1 h h l > $ .   :.:.",
":.:.:.:.:.:.:.:.:.:.:.:.:.:.:.:.:.:.:.  o o @ @ $ $ @ @ X   :.:."
};
