/* XPM */
static char *sidux-fonts-16[] = {
/* columns rows colors chars-per-pixel */
"16 16 137 2",
"   c black",
".  c gray1",
"X  c gray2",
"o  c #090909",
"O  c gray4",
"+  c #0B0B0B",
"@  c gray5",
"#  c #0E0E0E",
"$  c #101010",
"%  c gray7",
"&  c #131313",
"*  c #141313",
"=  c gray8",
"-  c #161616",
";  c gray9",
":  c #181818",
">  c gray10",
",  c gray11",
"<  c #251818",
"1  c #2C1414",
"2  c #361818",
"3  c #3D1817",
"4  c #3A1818",
"5  c gray13",
"6  c #222222",
"7  c gray14",
"8  c gray15",
"9  c #272727",
"0  c gray17",
"q  c #2C2C2C",
"w  c #2D2D2D",
"e  c #2F2F2F",
"r  c #302C2C",
"t  c #372B2B",
"y  c #382424",
"u  c gray19",
"i  c #313131",
"p  c #323232",
"a  c gray20",
"s  c #353535",
"d  c gray21",
"f  c #373737",
"g  c gray22",
"h  c #393939",
"j  c #3C3C3C",
"k  c #3F3F3F",
"l  c #470000",
"z  c #461414",
"x  c #4D1010",
"c  c #580000",
"v  c #4C3C3C",
"b  c #660909",
"n  c #631C1C",
"m  c #781818",
"M  c #6A2525",
"N  c #6C2323",
"B  c #603636",
"V  c #6B3A3A",
"C  c #6D3838",
"Z  c #742C2C",
"A  c gray25",
"S  c #414141",
"D  c #434343",
"F  c #444444",
"G  c gray27",
"H  c gray28",
"J  c #4D4343",
"K  c #484848",
"L  c gray29",
"P  c gray30",
"I  c #4E4E4E",
"U  c gray31",
"Y  c #564B4B",
"T  c #565656",
"R  c #5B5959",
"E  c #646464",
"W  c gray40",
"Q  c #786666",
"!  c gray48",
"~  c #893636",
"^  c #933535",
"/  c #943232",
"(  c #AB0707",
")  c #8A4141",
"_  c #944D4D",
"`  c #935757",
"'  c #965252",
"]  c #985151",
"[  c #9A5858",
"{  c #8D7E7E",
"}  c #C00707",
"|  c #C10909",
" . c #9A9A9A",
".. c #9B9B9B",
"X. c #9D9D9D",
"o. c #9F9F9F",
"O. c #A68585",
"+. c gray64",
"@. c #A5A5A5",
"#. c gray65",
"$. c #B0A2A2",
"%. c #B5ABAB",
"&. c gray69",
"*. c #B2B1B1",
"=. c #B2B2B2",
"-. c gray70",
";. c #B6B6B6",
":. c #B7B7B7",
">. c gray73",
",. c #BCBCBC",
"<. c gray74",
"1. c gray",
"2. c #C0C0C0",
"3. c #C1C1C1",
"4. c gray76",
"5. c gray78",
"6. c #C8C8C8",
"7. c gray79",
"8. c gray80",
"9. c #CECECE",
"0. c gray81",
"q. c #D0D0D0",
"w. c #D2D2D2",
"e. c LightGray",
"r. c gray83",
"t. c #D7D7D7",
"y. c gray85",
"u. c #DDDDDD",
"i. c #DFDFDF",
"p. c #E1E1E1",
"a. c #E2E2E2",
"s. c gray89",
"d. c gray90",
"f. c #E7E7E7",
"g. c #E9E9E9",
"h. c gray100",
"j. c None",
/* pixels */
"j.a D k A G L L L K k a j.j.j.j.",
"j.D +.5.q.e.q.1.;.;.o.9 j.j.j.j.",
"e @.8.8.8.8.>.;.;.:.@.9 j.j.j.j.",
"a 1.5.8.2.-.&.-.-.2...6 j.j.j.j.",
"f 2.2.1.G f h f a q 9 % j.j.j.j.",
"e -.1.>.@.o._ _ _ ) ~ ^ / c j.j.",
"-  .;.;.;.;.[ Z M O.N n ` l j.j.",
"@ P -.1.1.1.m -.Q v y 6 2 < > @ ",
"j.* a P W W R ! Y t 3 : 7   @ > ",
"k D G G G G G P J b C : , j.    ",
"L 5.8.w.w.t.t.t.$.( C * - j.j.  ",
"T w.t.u.i.i.i.i.%.( V O X j.j.j.",
"P w.t.i.s.g.s.s.{ } z O O j.j.j.",
"6 0 e a e a a r 1 x 3 % - j.j.j.",
"j.j.j.j.j.j.j.j.j.j.  > e   j.j.",
"j.j.j.j.j.j.j.j.j.j.  0 h , O j."
};
