/* XPM */
static char *sidux-fonts-16[] = {
/* columns rows colors chars-per-pixel */
"16 16 147 2",
"   c black",
".  c gray1",
"X  c gray2",
"o  c #060606",
"O  c gray4",
"+  c #0B0B0B",
"@  c gray5",
"#  c #0E0E0E",
"$  c #101010",
"%  c gray7",
"&  c #151313",
"*  c gray8",
"=  c #161616",
"-  c #181818",
";  c #191919",
":  c gray10",
">  c gray11",
",  c #1E1E1E",
"<  c #221717",
"1  c #271A1A",
"2  c #2F1717",
"3  c #391B1B",
"4  c #3A1818",
"5  c #3D1918",
"6  c gray13",
"7  c gray14",
"8  c gray15",
"9  c #272727",
"0  c gray16",
"q  c #2A2A2A",
"w  c gray17",
"e  c #2C2C2C",
"r  c #2D2D2D",
"t  c #372B2B",
"y  c #392424",
"u  c #313131",
"i  c #323232",
"p  c gray20",
"a  c #343434",
"s  c #353535",
"d  c #373737",
"f  c #393939",
"g  c #3A3A3A",
"h  c gray23",
"j  c gray24",
"k  c #3F3D3D",
"l  c #3E3E3E",
"z  c #440707",
"x  c #4E1111",
"c  c #580000",
"v  c #4B3F3F",
"b  c #4C3C3C",
"n  c #592828",
"m  c #660909",
"M  c #781818",
"N  c #6A2525",
"B  c #6D2424",
"V  c #6B2929",
"C  c #683E3E",
"Z  c #6D3838",
"A  c #6D3C3C",
"S  c #742C2C",
"D  c gray25",
"F  c #434343",
"G  c #444444",
"H  c gray27",
"J  c #464646",
"K  c #4C4C4C",
"L  c gray30",
"P  c gray31",
"I  c #505050",
"U  c gray34",
"Y  c #646161",
"T  c #646464",
"R  c #656565",
"E  c #676767",
"W  c #6A6A6A",
"Q  c gray42",
"!  c #786666",
"~  c #727272",
"^  c gray45",
"/  c gray46",
"(  c #843737",
")  c #8F3232",
"_  c #AB0707",
"`  c #8F4848",
"'  c #935757",
"]  c #985050",
"[  c #9C5555",
"{  c #9E5757",
"}  c #9A5858",
"|  c #9E5A5A",
" . c #C00707",
".. c #C10909",
"X. c #808080",
"o. c #848484",
"O. c gray54",
"+. c #908181",
"@. c #9D8F8F",
"#. c #909090",
"$. c #939393",
"%. c #9F9F9F",
"&. c #A68585",
"*. c #A0A0A0",
"=. c #A2A2A2",
"-. c gray64",
";. c #A5A5A5",
":. c #ACACAC",
">. c gray68",
",. c #AFAFAF",
"<. c #B6ACAC",
"1. c gray69",
"2. c #B2B1B1",
"3. c gray70",
"4. c #B4B4B4",
"5. c gray71",
"6. c #B6B6B6",
"7. c #B7B7B7",
"8. c gray73",
"9. c #BBBBBB",
"0. c gray74",
"q. c gray",
"w. c gray76",
"e. c gray77",
"r. c #C5C5C5",
"t. c gray78",
"y. c #C8C8C8",
"u. c #CBCBCB",
"i. c gray80",
"p. c #CDCDCD",
"a. c #CECECE",
"s. c gray81",
"d. c #D0D0D0",
"f. c #D2D2D2",
"g. c LightGray",
"h. c gray83",
"j. c #D8D8D8",
"k. c #DDDDDD",
"l. c #DFDFDF",
"z. c #E1E1E1",
"x. c gray89",
"c. c #E6E6E6",
"v. c #E7E7E7",
"b. c gray92",
"n. c #ECECEC",
"m. c gray100",
"M. c None",
/* pixels */
"M.M.F I O.:.9.9.2.*.O./ F i M.M.",
"M.i E u.d.d.s.0.7.6.6.t.E i M.M.",
"% d w.s.s.u.9.6.6.9.0.u.Q i M.M.",
"o H t.u.u.:.K F G L X.*.E i M.M.",
"  L w.t.6.%.U g 0 * # u g i M.M.",
"  l 9.9.6.6.| { { ] ` ( ) c M.M.",
"  9 X.6.6.6.} S N &.B V ' z M.M.",
"    g Q :.9.M 2.! b y F 3 1 : # ",
"M.9 $ X , u v / v t 4 , 7 % # : ",
"G G O.U j i u 0 < m Z t : L     ",
"X j p.g.w.3.*.;.@._ A w * g M.  ",
"  j g.k.z.x.x.l.<._ A 7 o d M.M.",
"  g 7.j.c.b.b.c.+._ n : O M.M.M.",
"  # , 0 H E / Y 4 x 5 & * M.M.M.",
"M.M.M.M.M.M.i i M.M.  : r   M.M.",
"M.M.M.M.M.M.M.M.M.M.  0 g , O M."
};
