/* XPM */
static char *sidux-fonts[] = {
/* columns rows colors chars-per-pixel */
"32 32 113 2",
"   c #000000",
".  c #0D0706",
"X  c #0B0B0B",
"o  c #100907",
"O  c #100B09",
"+  c #141313",
"@  c #1B1515",
"#  c #1B1B1B",
"$  c #230E0E",
"%  c #2B0303",
"&  c #261010",
"*  c #201F1F",
"=  c #350808",
"-  c #390B0B",
";  c #232323",
":  c #2D2323",
">  c #2A2A2A",
",  c #333333",
"<  c #3A3A3A",
"1  c #4C0101",
"2  c #480A0A",
"3  c #491010",
"4  c #4E1B1B",
"5  c #570D0D",
"6  c #5B0C0C",
"7  c #571717",
"8  c #442B2B",
"9  c #5D2E2E",
"0  c #650B0B",
"q  c #6A0606",
"w  c #690A0A",
"e  c #621F1F",
"r  c #691313",
"t  c #681A1A",
"y  c #7A0201",
"u  c #731010",
"i  c #7F1111",
"p  c #791818",
"a  c #662121",
"s  c #613131",
"d  c #653838",
"f  c #752C2C",
"g  c #782727",
"h  c #7C2A2A",
"j  c #434343",
"k  c #494545",
"l  c #4B4B4B",
"z  c #534747",
"x  c #524949",
"c  c #535353",
"v  c #5C5C5C",
"b  c #694747",
"n  c #615959",
"m  c #6A5454",
"M  c #714848",
"N  c #646464",
"B  c #6B6B6B",
"V  c #706161",
"C  c #7E6262",
"Z  c #717171",
"A  c #7C7C7C",
"S  c #8B0D0D",
"D  c #900000",
"F  c #9F0D0D",
"G  c #892B2B",
"H  c #833333",
"J  c #813F3F",
"K  c #A60000",
"L  c #A00808",
"P  c #AA0A0A",
"I  c #B40000",
"U  c #BB0000",
"Y  c #894141",
"T  c #915C5C",
"R  c #806969",
"E  c #877272",
"W  c #8D7272",
"Q  c #966767",
"!  c #B65E5E",
"~  c #A06C6C",
"^  c #B87171",
"/  c #BB7C7C",
"(  c #CA0000",
")  c #D10000",
"_  c #DF0000",
"`  c #E60000",
"'  c #C27B7B",
"]  c #838383",
"[  c gray55",
"{  c #929292",
"}  c #9F9090",
"|  c #9C9C9C",
" . c #A48080",
".. c #AB8787",
"X. c #BE8585",
"o. c #A4A4A4",
"O. c #AAAAAA",
"+. c #B8A1A1",
"@. c #B5B5B5",
"#. c #BBBBBB",
"$. c #C18C8C",
"%. c #C39393",
"&. c #C59B9B",
"*. c #C3ABAB",
"=. c #C2C2C2",
"-. c #CCCCCC",
";. c #D2D2D2",
":. c #DCDCDC",
">. c #E3E3E3",
",. c gray92",
"<. c gray94",
"1. c gray100",
"2. c None",
/* pixels */
"2.2.2.2.2., , < k v A [ { | | | { { ] A N j < , , , , 2.2.2.2.2.",
"2.2.2.  l l l [ #.-.;.;.;.;.;.;.=.#.@.@.@.@.O.{ v < , 2.2.2.2.2.",
"2.2.  k j c =.;.;.;.;.;.;.;.-.@.#.@.@.@.#.@.#.-.| < , 2.2.2.2.2.",
"2.  , > k =.;.-.;.;.;.;.;.=.@.@.@.@.@.#.@.@.#.-.| < , 2.2.2.2.2.",
"2.; ; < | -.;.;.-.;.;.-.=.#.@.@.@.@.@.@.@.@.#.-.| , , 2.2.2.2.2.",
"  X > j =.-.-.-.-.-.-.=.@.O.O.O.O.@.@.#.#.-.-.-.| < , 2.2.2.2.2.",
"  . , c -.-.-.-.-.-.=.o.v l k j j l l N { #.-.-.| < , 2.2.2.2.2.",
"    , Z =.=.-.=.-.=.@.v , , , , , , , , < j j Z A < , 2.2.2.2.2.",
"    , Z =.=.=.=.=.O.O.c > # + X .         . ; < j < , 2.2.2.2.2.",
"    , c =.=.=.=.@.O.@.O.{ Z v c k < > > # X   , , , , 2.2.2.2.2.",
"    , j #.=.=.#.@.@.@.@.@.O.@.@.o.[ A v l < , >       2.2.2.2.2.",
"    , < O.#.#.@.@.@.@.@.! ^ ^ X.X.X.%.&.&.%.$.$./ ' h   2.2.2.2.",
"      , v @.@.@.@.@.@.@.G *.~ H f h  .+.d G H Y ..~ 1   2.2.2.2.",
"      , < A @.#.#.#.#.@.h T 3 B A d C } 4 A A m t Q 2   2.2.2.2.",
"        , < Z O.#.#.=.#.G r | @.@.M M C 7 ] [ { d a - X         ",
"2.        , , l B o.@.@.S 9 #.=.=.l B Z A ] [ [ { { [ [ ] A B ; ",
"2.2.+         , , < l v k B | O.O.@ j * @     > j X   X X > >   ",
"2.2., , ; .         X + + # # < l @ ; f u o.N : , + c >     >   ",
"2.  , k c j , ; X           X # > @ = D q @.Z ; > + N ,     +   ",
"  l j c @.| B c l j j j 8 j < ; > o q K 0 #.Z # ; + v , 2.      ",
"  X > k -.;.;.=.O.[ v c l l l c v b L U w #.Z + # + l , 2.      ",
"    , j -.;.:.:.:.:.:.:.;.-.-.-.:.W P ( 0 =.Z + ; . < , 2.2.    ",
"    , j ;.:.:.:.>.>.>.>.>.>.:.:.:.W P ` 6 =.B .   . , , 2.2.2.2.",
"    , j ;.:.>.>.>.>.,.>.,.>.>.>.:.R P ` 6 =.B X     > 2.2.2.2.2.",
"    , j ;.>.>.>.,.,.,.,.,.,.>.>.:.m F ( 5 O.Z X   X . 2.2.2.2.2.",
"    , < B | =.:.,.,.,.<.<.,.>.>.;.8 P I w v , + X X   2.2.2.2.2.",
"    # > , , , j c ] | o.@.#.=.z & a i y p % : @ + +   2.2.2.2.2.",
"            . + # # ; ; ; > > + X O o o o .   # ; +   2.2.2.2.2.",
"2.    2.2.2.2.2.2.2.2.2., , , > ; +           > , #     2.2.2.2.",
"2.2.2.2.2.2.2.2.2.2.2.2.2.2.2.2.2.2.2.2.    X , j ,       2.2.2.",
"2.2.2.2.2.2.2.2.2.2.2.2.2.2.2.2.2.2.2.    + < j j c > # .   2.2.",
"2.2.2.2.2.2.2.2.2.2.2.2.2.2.2.2.2.2.2.  X + + + # # + +     2.2."
};
